<?xml version="1.0" encoding="utf-8"?><svg width="2076px" height="1098px" viewBox="0 0 2076 1098"  style="font-family: Roboto, sans-serif;font-size: 16px;" version="1.1" xmlns="http://www.w3.org/2000/svg" xmlns:xlink="http://www.w3.org/1999/xlink"><defs xmlns="http://www.w3.org/2000/svg"><clipPath id="id-88879"><rect width="2076" height="1098"/></clipPath><linearGradient id="gradient-id-88902" x1="1%" x2="99%" y1="59%" y2="41%"><stop stop-color="#474758" offset="0"/><stop stop-color="#474758" stop-opacity="1" offset="0.75"/><stop stop-color="#3cabff" stop-opacity="1" offset="0.755"/></linearGradient><filter id="filter-id-88884" filterUnits="objectBoundingBox" width="200%" height="200%" x="-50%" y="-50%"><feGaussianBlur result="blurOut" in="SourceGraphic" stdDeviation="1.5"/><feOffset result="offsetBlur" dx="1" dy="1"/><feFlood flood-color="#000000" flood-opacity="0.5"/><feComposite in2="offsetBlur" operator="in"/><feMerge><feMergeNode/><feMergeNode in="SourceGraphic"/></feMerge></filter><filter id="filter-id-88899" filterUnits="objectBoundingBox" width="120%" height="120%" x="-10%" y="-10%"><feColorMatrix type="saturate" values="0"/></filter></defs><g xmlns="http://www.w3.org/2000/svg"><g fill="#ffffff" fill-opacity="0"><rect width="2076" height="1098"/></g><g><g role="region" clip-path="url(#id-88879)" font-family="Open Sans" font-size="15" opacity="1" aria-describedby="id-88863-description"><g><g><g><g transform="translate(0,0)"><g><g transform="translate(1038,549)"><g><g><g><g fill="#777ecc" style="touch-action: none; user-select: none; -webkit-user-drag: none; cursor: pointer;"><g><g stroke-opacity="1"><g><g><path d=" M1.8509,-424.196  L1.9164,-439.1958  a439.20000000000005,439.20000000000005,0,0,1,424.5829,334.3388 L411.9331,-101.2758  a424.2,424.2,0,0,0,-410.0821,-322.9201 L1.8509,-424.196 "/></g><g/></g></g><g stroke-opacity="1"><g><g><path d=""/></g><g/></g></g><g fill="#000000" fill-opacity="0.4" transform="translate(266.95399999999995,-355.175) rotate(-51.78125433948472)"><g style="user-select: none;"><text x="0" y="19.5" overflow="hidden" dy="-5.265"><tspan>domain2</tspan></text></g></g></g></g><g fill="#ccc577" style="touch-action: none; user-select: none; -webkit-user-drag: none; cursor: pointer;"><g><g stroke-opacity="1"><g><g><path d=" M412.8012,-97.6772  L427.3981,-101.1312  a439.20000000000005,439.20000000000005,0,0,1,-94.2228,387.297 L321.7963,276.3924  a424.2,424.2,0,0,0,91.0048,-374.0696 L412.8012,-97.6772 "/></g><g/></g></g><g stroke-opacity="1"><g><g><path d=""/></g><g/></g></g><g fill="#000000" fill-opacity="0.4" transform="translate(433.97499999999997,95.287) rotate(13.673464990742104)"><g style="user-select: none;"><text x="0" y="19.5" overflow="hidden" dy="-5.265"><tspan>domain7</tspan></text></g></g></g></g><g fill="#a0cc77" style="touch-action: none; user-select: none; -webkit-user-drag: none; cursor: pointer;"><g><g stroke-opacity="1"><g><g><path d=" M319.3721,279.19  L330.6653,289.0624  a439.20000000000005,439.20000000000005,0,0,1,-360.5273,149.1212 L-28.8421,423.2184  a424.2,424.2,0,0,0,348.2142,-144.0283 L319.3721,279.19 "/></g><g/></g></g><g stroke-opacity="1"><g><g><path d=""/></g><g/></g></g><g fill="#000000" fill-opacity="0.4" transform="translate(179.02100000000002,406.651) rotate(67.5290413804218)"><g style="user-select: none;"><text x="0" y="19.5" overflow="hidden" dy="-5.265"><tspan>domain8</tspan></text></g></g></g></g><g fill="#cc778f" style="touch-action: none; user-select: none; -webkit-user-drag: none; cursor: pointer;"><g><g stroke-opacity="1"><g><g><path d=" M-32.5342,422.9505  L-33.6846,437.9064  a439.20000000000005,439.20000000000005,0,0,1,-306.6545,-160.2989 L-328.7155,268.1264  a424.2,424.2,0,0,0,296.1813,154.8242 L-32.5342,422.9505 "/></g><g/></g></g><g stroke-opacity="1"><g><g><path d=""/></g><g/></g></g><g fill="#000000" fill-opacity="0.4" transform="translate(-239.194,435.997) rotate(297.5976188620756)"><g style="user-select: none;"><text x="0" y="19.5" overflow="hidden" dy="-5.265"><tspan>domain5</tspan></text></g></g></g></g><g fill="#cc9277" style="touch-action: none; user-select: none; -webkit-user-drag: none; cursor: pointer;"><g><g stroke-opacity="1"><g><g><path d=" M-331.0428,265.2476  L-342.7487,274.627  a439.20000000000005,439.20000000000005,0,0,1,-96.2835,-286.7651 L-424.038,-11.7236  a424.2,424.2,0,0,0,92.9952,276.9712 L-331.0428,265.2476 "/></g><g/></g></g><g stroke-opacity="1"><g><g><path d=""/></g><g/></g></g><g fill="#000000" fill-opacity="0.4" transform="translate(-474.524,148.776) rotate(341.4401379391163)"><g style="user-select: none;"><text x="0" y="19.5" overflow="hidden" dy="-5.265"><tspan>domain6</tspan></text></g></g></g></g><g fill="#cc77c2" style="touch-action: none; user-select: none; -webkit-user-drag: none; cursor: pointer;"><g><g stroke-opacity="1"><g><g><path d=" M-423.9195,-15.4235  L-438.9096,-15.9689  a439.20000000000005,439.20000000000005,0,0,1,72.8079,-226.6547 L-353.5982,-234.3373  a424.2,424.2,0,0,0,-70.3213,218.9138 L-423.9195,-15.4235 "/></g><g/></g></g><g stroke-opacity="1"><g><g><path d=""/></g><g/></g></g><g fill="#000000" fill-opacity="0.4" transform="translate(-470.318,-161.58300000000003) rotate(17.808497637994037)"><g style="user-select: none;"><text x="0" y="19.5" overflow="hidden" dy="-5.265"><tspan>domain4</tspan></text></g></g></g></g><g fill="#77b1cc" style="touch-action: none; user-select: none; -webkit-user-drag: none; cursor: pointer;"><g><g stroke-opacity="1"><g><g><path d=" M-351.5398,-237.4141  L-363.9704,-245.8092  a439.20000000000005,439.20000000000005,0,0,1,159.8021,-143.0506 L-197.1954,-375.5791  a424.2,424.2,0,0,0,-154.3444,138.165 L-351.5398,-237.4141 "/></g><g/></g></g><g stroke-opacity="1"><g><g><path d=""/></g><g/></g></g><g fill="#000000" fill-opacity="0.4" transform="translate(-324.169,-377.124) rotate(48.16594160545955)"><g style="user-select: none;"><text x="0" y="19.5" overflow="hidden" dy="-5.265"><tspan>domain1</tspan></text></g></g></g></g><g fill="#a377cc" style="touch-action: none; user-select: none; -webkit-user-drag: none; cursor: pointer;"><g><g stroke-opacity="1"><g><g><path d=" M-193.9104,-377.2856  L-200.7672,-390.6267  a439.20000000000005,439.20000000000005,0,0,1,198.8508,-48.5692 L-1.8509,-424.196  a424.2,424.2,0,0,0,-192.0594,46.9104 L-193.9104,-377.2856 "/></g><g/></g></g><g stroke-opacity="1"><g><g><path d=""/></g><g/></g></g><g fill="#000000" fill-opacity="0.4" transform="translate(-108.259,-485.37399999999997) rotate(76.27428509470121)"><g style="user-select: none;"><text x="0" y="19.5" overflow="hidden" dy="-5.265"><tspan>domain3</tspan></text></g></g></g></g></g></g><g><g><g stroke-opacity="0" fill-opacity="0.5" fill="#e35757"><g><g><path d=" M319.3721,279.19  a424.2,424.2,0,0,1,-22.8425,24.151 Q0,0 295.3961,-304.445 a424.2,424.2,0,0,1,22.9324,24.0656 Q0,0 319.3721,279.19"/></g><g fill="none" stroke-opacity="0" stroke="#e35757"><path x1="308.1875614041" y1="291.48939434538" x2="307.09817079647996" y2="-292.63689700182" d=" M308.1876,291.4894  Q0,0 307.0982,-292.6369"/></g></g></g><g stroke-opacity="0" fill-opacity="0.5" fill="#e45d5d"><g><g><path d=" M296.5297,303.3411  a424.2,424.2,0,0,1,-23.5537,21.3584 Q0,0 -392.7835,-160.2084 a424.2,424.2,0,0,1,13.1032,-28.97 Q0,0 296.5297,303.3411"/></g><g fill="none" stroke-opacity="0" stroke="#e45d5d"><path x1="284.9530075161" y1="314.24102771208" x2="-386.50346581224" y2="-174.81622042962" d=" M284.953,314.241  Q0,0 -386.5035,-174.8162"/></g></g></g><g stroke-opacity="0" fill-opacity="0.5" fill="#809cdf"><g><g><path d=" M272.976,324.6995  a424.2,424.2,0,0,1,-20.145,15.9208 Q0,0 -259.5037,335.5644 a424.2,424.2,0,0,1,-19.8269,-16.3152 Q0,0 272.976,324.6995"/></g><g fill="none" stroke-opacity="0" stroke="#809cdf"><path x1="263.02395318023997" y1="332.81231956685997" x2="-269.54067172199996" y2="327.55681384272" d=" M263.024,332.8123  Q0,0 -269.5407,327.5568"/></g></g></g><g stroke-opacity="0" fill-opacity="0.5" fill="#819cdf"><g><g><path d=" M252.8309,340.6202  a424.2,424.2,0,0,1,-20.9775,14.6115 Q0,0 -279.3307,319.2492 a424.2,424.2,0,0,1,-18.7237,-17.4061 Q0,0 252.8309,340.6202"/></g><g fill="none" stroke-opacity="0" stroke="#819cdf"><path x1="242.45231373174" y1="348.08406394272" x2="-288.82367233818" y2="310.68718399866" d=" M242.4523,348.0841  Q0,0 -288.8237,310.6872"/></g></g></g><g stroke-opacity="0" fill-opacity="0.5" fill="#87a1e0"><g><g><path d=" M231.8535,355.2318  a424.2,424.2,0,0,1,-20.2015,12.3945 Q0,0 -420.2962,57.4173 a424.2,424.2,0,0,1,-2.5507,-23.5631 Q0,0 231.8535,355.2318"/></g><g fill="none" stroke-opacity="0" stroke="#87a1e0"><path x1="221.83931312885997" y1="361.57013031636" x2="-421.73615820882" y2="45.65361810282" d=" M221.8393,361.5701  Q0,0 -421.7362,45.6536"/></g></g></g><g stroke-opacity="0" fill-opacity="0.5" fill="#ea7d7d"><g><g><path d=" M211.652,367.6263  a424.2,424.2,0,0,1,-20.045,10.8343 Q0,0 390.7727,-165.0525 a424.2,424.2,0,0,1,8.2988,21.2206 Q0,0 211.652,367.6263"/></g><g fill="none" stroke-opacity="0" stroke="#ea7d7d"><path x1="201.70222776606" y1="373.17804236664" x2="395.06458851132" y2="-154.49793175866" d=" M201.7022,373.178  Q0,0 395.0646,-154.4979"/></g></g></g><g stroke-opacity="0" fill-opacity="0.5" fill="#2c5ac9"><g><g><path d=" M412.8012,-97.6772  a424.2,424.2,0,0,1,8.8064,50.851 Q0,0 221.6418,-361.6913 a424.2,424.2,0,0,1,42.2814,29.5916 Q0,0 412.8012,-97.6772"/></g><g fill="none" stroke-opacity="0" stroke="#2c5ac9"><path x1="417.97839875568" y1="-72.38575953041999" x2="243.23288886036002" y2="-347.53906510260003" d=" M417.9784,-72.3858  Q0,0 243.2329,-347.5391"/></g></g></g><g stroke-opacity="0" fill-opacity="0.5" fill="#dc2929"><g><g><path d=" M421.6076,-46.8262  a424.2,424.2,0,0,1,2.5916,46.0063 Q0,0 -391.707,162.8227 a424.2,424.2,0,0,1,-15.3497,-43.4475 Q0,0 421.6076,-46.8262"/></g><g fill="none" stroke-opacity="0" stroke="#dc2929"><path x1="423.5285386983" y1="-23.85826711044" x2="-399.97227140304" y2="141.30754445052" d=" M423.5285,-23.8583  Q0,0 -399.9723,141.3075"/></g></g></g><g stroke-opacity="0" fill-opacity="0.5" fill="#5a7ed5"><g><g><path d=" M424.1992,-0.8199  a424.2,424.2,0,0,1,-1.5828,37.4393 Q0,0 113.5587,408.7176 a424.2,424.2,0,0,1,-36.5129,8.427 Q0,0 424.1992,-0.8199"/></g><g fill="none" stroke-opacity="0" stroke="#5a7ed5"><path x1="423.821439678" y1="17.917233655020002" x2="95.395336785" y2="413.33445262704" d=" M423.8214,17.9172  Q0,0 95.3953,413.3345"/></g></g></g><g stroke-opacity="0" fill-opacity="0.5" fill="#e87474"><g><g><path d=" M422.6164,36.6194  a424.2,424.2,0,0,1,-2.938,25.1515 Q0,0 19.1358,423.7682 a424.2,424.2,0,0,1,-25.3195,0.3868 Q0,0 422.6164,36.6194"/></g><g fill="none" stroke-opacity="0" stroke="#e87474"><path x1="421.33516398498" y1="49.21706608602" x2="6.478935217439999" y2="424.15051974246" d=" M421.3352,49.2171  Q0,0 6.4789,424.1505"/></g></g></g><g stroke-opacity="0" fill-opacity="0.5" fill="#8ba4e1"><g><g><path d=" M419.6784,61.7709  a424.2,424.2,0,0,1,-3.804,21.8599 Q0,0 -314.2459,284.9476 a424.2,424.2,0,0,1,-14.4696,-16.8213 Q0,0 419.6784,61.7709"/></g><g fill="none" stroke-opacity="0" stroke="#8ba4e1"><path x1="417.9193849425" y1="72.72570166008" x2="-321.5907006228" y2="276.63163459722" d=" M417.9194,72.7257  Q0,0 -321.5907,276.6316"/></g></g></g><g stroke-opacity="0" fill-opacity="0.5" fill="#ea8080"><g><g><path d=" M415.8744,83.6308  a424.2,424.2,0,0,1,-4.9026,21.4777 Q0,0 -216.4279,-364.835 a424.2,424.2,0,0,1,19.2326,-10.744 Q0,0 415.8744,83.6308"/></g><g fill="none" stroke-opacity="0" stroke="#ea8080"><path x1="413.56258216938" y1="94.40143347012" x2="-206.88140328155998" y2="-370.33191191724" d=" M413.5626,94.4014  Q0,0 -206.8814,-370.3319"/></g></g></g><g stroke-opacity="0" fill-opacity="0.5" fill="#ea8080"><g><g><path d=" M410.9718,105.1084  a424.2,424.2,0,0,1,-5.9538,21.0107 Q0,0 406.1752,-122.341 a424.2,424.2,0,0,1,5.7578,21.0652 Q0,0 410.9718,105.1084"/></g><g fill="none" stroke-opacity="0" stroke="#ea8080"><path x1="408.13017058002" y1="115.65208107768" x2="409.18972037201996" y2="-111.84548598131998" d=" M408.1302,115.6521  Q0,0 409.1897,-111.8455"/></g></g></g><g stroke-opacity="0" fill-opacity="0.5" fill="#6b8bd9"><g><g><path d=" M-331.0428,265.2476  a424.2,424.2,0,0,1,-19.2553,-26.0054 Q0,0 -113.9914,-408.5971 a424.2,424.2,0,0,1,31.4769,-7.5002 Q0,0 -331.0428,265.2476"/></g><g fill="none" stroke-opacity="0" stroke="#6b8bd9"><path x1="-340.91853056772" y1="252.42859490688" x2="-98.3244640854" y2="-412.64747638001995" d=" M-340.9185,252.4286  Q0,0 -98.3245,-412.6475"/></g></g></g><g stroke-opacity="0" fill-opacity="0.5" fill="#6c8cd9"><g><g><path d=" M-350.2981,239.2422  a424.2,424.2,0,0,1,-17.0168,-27.0503 Q0,0 -82.5145,-416.0973 a424.2,424.2,0,0,1,31.5591,-5.0311 Q0,0 -350.2981,239.2422"/></g><g fill="none" stroke-opacity="0" stroke="#6c8cd9"><path x1="-359.06134911654" y1="225.87737287038" x2="-66.78231071316" y2="-418.91020873506" d=" M-359.0613,225.8774  Q0,0 -66.7823,-418.9102"/></g></g></g><g stroke-opacity="0" fill-opacity="0.5" fill="#e66969"><g><g><path d=" M-367.3149,212.1919  a424.2,424.2,0,0,1,-13.3222,-24.9461 Q0,0 47.3293,421.5514 a424.2,424.2,0,0,1,-28.1935,2.2168 Q0,0 -367.3149,212.1919"/></g><g fill="none" stroke-opacity="0" stroke="#e66969"><path x1="-374.18396852760003" y1="199.82992193052002" x2="33.251052744" y2="422.89479484266" d=" M-374.184,199.8299  Q0,0 33.2511,422.8948"/></g></g></g><g stroke-opacity="0" fill-opacity="0.5" fill="#7c99de"><g><g><path d=" M-380.6371,187.2458  a424.2,424.2,0,0,1,-11.0699,-24.4231 Q0,0 -50.9554,-421.1285 a424.2,424.2,0,0,1,26.7091,-2.378 Q0,0 -380.6371,187.2458"/></g><g fill="none" stroke-opacity="0" stroke="#7c99de"><path x1="-386.36512184801995" y1="175.12176511451997" x2="-37.619584095659995" y2="-422.52858705498" d=" M-386.3651,175.1218  Q0,0 -37.6196,-422.5286"/></g></g></g><g stroke-opacity="0" fill-opacity="0.5" fill="#6082d6"><g><g><path d=" M-32.5342,422.9505  a424.2,424.2,0,0,1,-35.502,-4.2422 Q0,0 -289.2056,-310.3317 a424.2,424.2,0,0,1,27.161,-23.2523 Q0,0 -32.5342,422.9505"/></g><g fill="none" stroke-opacity="0" stroke="#6082d6"><path x1="-50.32993998144" y1="421.20367653504" x2="-275.87022423072" y2="-322.2440990643" d=" M-50.3299,421.2037  Q0,0 -275.8702,-322.2441"/></g></g></g><g stroke-opacity="0" fill-opacity="0.5" fill="#e45959"><g><g><path d=" M-68.0362,418.7084  a424.2,424.2,0,0,1,-32.1094,-6.4991 Q0,0 -407.0567,119.3752 a424.2,424.2,0,0,1,-7.9984,-31.7691 Q0,0 -68.0362,418.7084"/></g><g fill="none" stroke-opacity="0" stroke="#e45959"><path x1="-84.15370769063999" y1="415.76891835611997" x2="-411.36276737892" y2="103.56791790576" d=" M-84.1537,415.7689  Q0,0 -411.3628,103.5679"/></g></g></g><g stroke-opacity="0" fill-opacity="0.5" fill="#e56363"><g><g><path d=" M-100.1456,412.2093  a424.2,424.2,0,0,1,-28.783,-8.0768 Q0,0 318.3285,-280.3794 a424.2,424.2,0,0,1,18.9565,23.116 Q0,0 -100.1456,412.2093"/></g><g fill="none" stroke-opacity="0" stroke="#e56363"><path x1="-114.60831827045999" y1="408.42450145308" x2="328.01048068361996" y2="-268.98840972948" d=" M-114.6083,408.4245  Q0,0 328.0105,-268.9884"/></g></g></g><g stroke-opacity="0" fill-opacity="0.5" fill="#7593dc"><g><g><path d=" M-128.9287,404.1325  a424.2,424.2,0,0,1,-27.4872,-9.8233 Q0,0 337.285,-257.2634 a424.2,424.2,0,0,1,16.8936,23.8044 Q0,0 -128.9287,404.1325"/></g><g fill="none" stroke-opacity="0" stroke="#7593dc"><path x1="-142.75677076794" y1="399.45731237076" x2="345.93666326184" y2="-245.50654783535998" d=" M-142.7568,399.4573  Q0,0 345.9367,-245.5065"/></g></g></g><g stroke-opacity="0" fill-opacity="0.5" fill="#7b98dd"><g><g><path d=" M-156.4159,394.3092  a424.2,424.2,0,0,1,-24.9687,-10.8443 Q0,0 368.5611,-210.0199 a424.2,424.2,0,0,1,12.7117,24.0718 Q0,0 -156.4159,394.3092"/></g><g fill="none" stroke-opacity="0" stroke="#7b98dd"><path x1="-168.9872164974" y1="389.08734322289996" x2="375.11006453298" y2="-198.08604065123998" d=" M-168.9872,389.0873  Q0,0 375.1101,-198.086"/></g></g></g><g stroke-opacity="0" fill-opacity="0.5" fill="#88a1e0"><g><g><path d=" M-181.3846,383.4648  a424.2,424.2,0,0,1,-20.87,-10.5859 Q0,0 -298.0544,301.8431 a424.2,424.2,0,0,1,-16.1915,-16.8954 Q0,0 -181.3846,383.4648"/></g><g fill="none" stroke-opacity="0" stroke="#88a1e0"><path x1="-191.89259211864" y1="378.3158377236" x2="-306.2666595135" y2="293.50702422887997" d=" M-191.8926,378.3158  Q0,0 -306.2667,293.507"/></g></g></g><g stroke-opacity="0" fill-opacity="0.5" fill="#e97b7b"><g><g><path d=" M-202.2546,372.879  a424.2,424.2,0,0,1,-20.1309,-11.6445 Q0,0 -422.8469,33.8543 a424.2,424.2,0,0,1,-1.2199,-23.2241 Q0,0 -202.2546,372.879"/></g><g fill="none" stroke-opacity="0" stroke="#e97b7b"><path x1="-212.3998434369" y1="367.19469835482" x2="-423.61604237736" y2="22.25058779748" d=" M-212.3998,367.1947  Q0,0 -423.616,22.2506"/></g></g></g><g stroke-opacity="0" fill-opacity="0.5" fill="#89a3e1"><g><g><path d=" M-222.3855,361.2345  a424.2,424.2,0,0,1,-19.0811,-12.4659 Q0,0 -365.6741,-215.0071 a424.2,424.2,0,0,1,12.076,-19.3302 Q0,0 -222.3855,361.2345"/></g><g fill="none" stroke-opacity="0" stroke="#89a3e1"><path x1="-232.0097345244" y1="355.12972713624" x2="-359.76601106754" y2="-224.75332537728002" d=" M-232.0097,355.1297  Q0,0 -359.766,-224.7533"/></g></g></g><g stroke-opacity="0" fill-opacity="0.5" fill="#8ba4e1"><g><g><path d=" M-241.4665,348.7686  a424.2,424.2,0,0,1,-18.0372,-13.2042 Q0,0 -424.0668,10.6302 a424.2,424.2,0,0,1,0.0288,-22.3538 Q0,0 -241.4665,348.7686"/></g><g fill="none" stroke-opacity="0" stroke="#8ba4e1"><path x1="-250.57212785094" y1="342.28533232236" x2="-424.19964744737996" y2="-0.54688920258" d=" M-250.5721,342.2853  Q0,0 -424.1996,-0.5469"/></g></g></g><g stroke-opacity="0" fill-opacity="0.5" fill="#de3838"><g><g><path d=" M-423.9195,-15.4235  a424.2,424.2,0,0,1,3.5891,-41.7427 Q0,0 263.9232,-332.0997 a424.2,424.2,0,0,1,31.473,27.6547 Q0,0 -423.9195,-15.4235"/></g><g fill="none" stroke-opacity="0" stroke="#de3838"><path x1="-422.64063100097997" y1="-36.33919387476" x2="280.00128362892" y2="-318.66113847497996" d=" M-422.6406,-36.3392  Q0,0 280.0013,-318.6611"/></g></g></g><g stroke-opacity="0" fill-opacity="0.5" fill="#6485d7"><g><g><path d=" M-420.3304,-57.1662  a424.2,424.2,0,0,1,6.0147,-33.8729 Q0,0 405.018,126.1191 a424.2,424.2,0,0,1,-11.5518,32.4053 Q0,0 -420.3304,-57.1662"/></g><g fill="none" stroke-opacity="0" stroke="#6485d7"><path x1="-417.66660759852" y1="-74.16363602802001" x2="399.57076618788" y2="142.43890901184" d=" M-417.6666,-74.1636  Q0,0 399.5708,142.4389"/></g></g></g><g stroke-opacity="0" fill-opacity="0.5" fill="#7b98dd"><g><g><path d=" M-414.3157,-91.0391  a424.2,424.2,0,0,1,6.6888,-26.3744 Q0,0 353.3404,234.7259 a424.2,424.2,0,0,1,-15.7751,22.1697 Q0,0 -414.3157,-91.0391"/></g><g fill="none" stroke-opacity="0" stroke="#7b98dd"><path x1="-411.18285066936" y1="-104.27992759464" x2="345.63062103275996" y2="245.93721514613998" d=" M-411.1829,-104.2799  Q0,0 345.6306,245.9372"/></g></g></g><g stroke-opacity="0" fill-opacity="0.5" fill="#8aa3e1"><g><g><path d=" M-407.6269,-117.4135  a424.2,424.2,0,0,1,6.8572,-21.6161 Q0,0 -6.1837,424.1549 a424.2,424.2,0,0,1,-22.6583,-0.9366 Q0,0 -407.6269,-117.4135"/></g><g fill="none" stroke-opacity="0" stroke="#8aa3e1"><path x1="-404.34282555240003" y1="-128.26737476154" x2="-17.51915750298" y2="423.8380812561" d=" M-404.3428,-128.2674  Q0,0 -17.5192,423.8381"/></g></g></g><g stroke-opacity="0" fill-opacity="0.5" fill="#8aa3e1"><g><g><path d=" M-400.7698,-139.0296  a424.2,424.2,0,0,1,7.9862,-21.1788 Q0,0 399.0715,-143.8319 a424.2,424.2,0,0,1,7.1038,21.4909 Q0,0 -400.7698,-139.0296"/></g><g fill="none" stroke-opacity="0" stroke="#8aa3e1"><path x1="-396.91793956374" y1="-149.67227281524" x2="402.76670595587996" y2="-133.13384454468" d=" M-396.9179,-149.6723  Q0,0 402.7667,-133.1338"/></g></g></g><g stroke-opacity="0" fill-opacity="0.5" fill="#708fda"><g><g><path d=" M-193.9104,-377.2856  a424.2,424.2,0,0,1,27.7397,-13.013 Q0,0 -415.0552,87.6061 a424.2,424.2,0,0,1,-5.241,-30.1888 Q0,0 -193.9104,-377.2856"/></g><g fill="none" stroke-opacity="0" stroke="#708fda"><path x1="-180.15801874182" y1="-384.0426125949" x2="-417.94834821558" y2="72.5590670343" d=" M-180.158,-384.0426  Q0,0 -417.9483,72.5591"/></g></g></g><g stroke-opacity="0" fill-opacity="0.5" fill="#7996dd"><g><g><path d=" M-166.1706,-390.2986  a424.2,424.2,0,0,1,25.9068,-10.0409 Q0,0 -262.0446,-333.584 a424.2,424.2,0,0,1,22.3997,-16.4388 Q0,0 -166.1706,-390.2986"/></g><g fill="none" stroke-opacity="0" stroke="#7996dd"><path x1="-153.2994423408" y1="-395.53118836182" x2="-250.97938169723997" y2="-341.98682719403996" d=" M-153.2994,-395.5312  Q0,0 -250.9794,-341.9868"/></g></g></g><g stroke-opacity="0" fill-opacity="0.5" fill="#e76c6c"><g><g><path d=" M-140.2638,-400.3395  a424.2,424.2,0,0,1,26.2724,-8.2576 Q0,0 -239.6449,-350.0228 a424.2,424.2,0,0,1,23.217,-14.8122 Q0,0 -140.2638,-400.3395"/></g><g fill="none" stroke-opacity="0" stroke="#e76c6c"><path x1="-127.19461410894" y1="-404.68156634766" x2="-228.15664184795997" y2="-357.61737481932" d=" M-127.1946,-404.6816  Q0,0 -228.1566,-357.6174"/></g></g></g><g stroke-opacity="0" fill-opacity="0.5" fill="#dd2f2f"><g><g><path d=" M1.8509,-424.196  a424.2,424.2,0,0,1,44.5087,2.5368 Q0,0 191.607,378.4606 a424.2,424.2,0,0,1,-40.7772,18.0189 Q0,0 1.8509,-424.196"/></g><g fill="none" stroke-opacity="0" stroke="#dd2f2f"><path x1="24.138609055259998" y1="-423.51265334154" x2="171.45525668081999" y2="388.00610170937995" d=" M24.1386,-423.5127  Q0,0 171.4553,388.0061"/></g></g></g><g stroke-opacity="0" fill-opacity="0.5" fill="#708fda"><g><g><path d=" M46.3596,-421.6591  a424.2,424.2,0,0,1,30.3587,4.4542 Q0,0 393.4662,158.5244 a424.2,424.2,0,0,1,-12.4884,28.0273 Q0,0 46.3596,-421.6591"/></g><g fill="none" stroke-opacity="0" stroke="#708fda"><path x1="61.57923360624" y1="-419.70660940824" x2="387.47550106565996" y2="172.65102400728" d=" M61.5792,-419.7066  Q0,0 387.4755,172.651"/></g></g></g><g stroke-opacity="0" fill-opacity="0.5" fill="#e56363"><g><g><path d=" M76.7183,-417.2049  a424.2,424.2,0,0,1,29.3351,6.4759 Q0,0 77.0458,417.1446 a424.2,424.2,0,0,1,-29.7165,4.4068 Q0,0 76.7183,-417.2049"/></g><g fill="none" stroke-opacity="0" stroke="#e56363"><path x1="91.44320634666" y1="-414.22672538478" x2="62.22658028328" y2="419.61112080047997" d=" M91.4432,-414.2267  Q0,0 62.2266,419.6111"/></g></g></g><g stroke-opacity="0" fill-opacity="0.5" fill="#e76a6a"><g><g><path d=" M106.0534,-410.729  a424.2,424.2,0,0,1,26.9249,7.9109 Q0,0 380.9778,186.5517 a424.2,424.2,0,0,1,-13.1683,24.7816 Q0,0 106.0534,-410.729"/></g><g fill="none" stroke-opacity="0" stroke="#e76a6a"><path x1="119.58130789752" y1="-406.9962540315" x2="374.59866309641995" y2="199.0514546517" d=" M119.5813,-406.9963  Q0,0 374.5987,199.0515"/></g></g></g><g stroke-opacity="0" fill-opacity="0.5" fill="#7a97dd"><g><g><path d=" M132.9783,-402.8181  a424.2,424.2,0,0,1,25.8261,9.4648 Q0,0 367.8095,211.3333 a424.2,424.2,0,0,1,-14.4692,23.3925 Q0,0 132.9783,-402.8181"/></g><g fill="none" stroke-opacity="0" stroke="#7a97dd"><path x1="145.96806963018" y1="-398.29506982481996" x2="360.76460438004" y2="223.14690279923997" d=" M145.9681,-398.2951  Q0,0 360.7646,223.1469"/></g></g></g><g stroke-opacity="0" fill-opacity="0.5" fill="#829ddf"><g><g><path d=" M158.8044,-393.3533  a424.2,424.2,0,0,1,22.9646,10.0705 Q0,0 337.5653,256.8955 a424.2,424.2,0,0,1,-15.7689,19.4969 Q0,0 158.8044,-393.3533"/></g><g fill="none" stroke-opacity="0" stroke="#829ddf"><path x1="170.36107986702" y1="-388.48776358685996" x2="329.8249021809" y2="266.76051786216" d=" M170.3611,-388.4878  Q0,0 329.8249,266.7605"/></g></g></g><g stroke-opacity="0" fill-opacity="0.5" fill="#ea7c7c"><g><g><path d=" M181.7689,-383.2828  a424.2,424.2,0,0,1,20.466,10.3932 Q0,0 381.2728,-185.9482 a424.2,424.2,0,0,1,9.4999,20.8957 Q0,0 181.7689,-383.2828"/></g><g fill="none" stroke-opacity="0" stroke="#ea7c7c"><path x1="192.07227407591998" y1="-378.2246442681" x2="386.16409253477997" y2="-175.56461383734" d=" M192.0723,-378.2246  Q0,0 386.1641,-175.5646"/></g></g></g><g stroke-opacity="0" fill-opacity="0.5" fill="#8ba4e1"><g><g><path d=" M202.235,-372.8896  a424.2,424.2,0,0,1,19.4068,11.1983 Q0,0 -24.2462,-423.5065 a424.2,424.2,0,0,1,22.3953,-0.6895 Q0,0 202.235,-372.8896"/></g><g fill="none" stroke-opacity="0" stroke="#8ba4e1"><path x1="212.01231836903997" y1="-367.4185853457" x2="-13.0531245873" y2="-423.99912255035997" d=" M212.0123,-367.4186  Q0,0 -13.0531,-423.9991"/></g></g></g><g stroke-opacity="0" fill-opacity="0.5" fill="#e04242"><g><g><path d=" M-351.5398,-237.4141  a424.2,424.2,0,0,1,23.4351,-31.4595 Q0,0 150.8298,396.4795 a424.2,424.2,0,0,1,-37.2711,12.2381 Q0,0 -351.5398,-237.4141"/></g><g fill="none" stroke-opacity="0" stroke="#e04242"><path x1="-340.18604830811995" y1="-253.41486249449997" x2="132.33579029747997" y2="403.02962498862" d=" M-340.186,-253.4149  Q0,0 132.3358,403.0296"/></g></g></g><g stroke-opacity="0" fill-opacity="0.5" fill="#e66565"><g><g><path d=" M-328.1046,-268.8736  a424.2,424.2,0,0,1,19.3992,-22.0673 Q0,0 -379.6803,-189.1784 a424.2,424.2,0,0,1,14.0062,-25.8287 Q0,0 -328.1046,-268.8736"/></g><g fill="none" stroke-opacity="0" stroke="#e66565"><path x1="-318.59615035625995" y1="-280.07522733077997" x2="-372.90093515892" y2="-202.21407609732" d=" M-318.5962,-280.0752  Q0,0 -372.9009,-202.2141"/></g></g></g><g stroke-opacity="0" fill-opacity="0.5" fill="#e76c6c"><g><g><path d=" M-308.7054,-290.9409  a424.2,424.2,0,0,1,19.4998,-19.3908 Q0,0 354.1787,-233.459 a424.2,424.2,0,0,1,14.3824,23.4391 Q0,0 -308.7054,-290.9409"/></g><g fill="none" stroke-opacity="0" stroke="#e76c6c"><path x1="-299.11271787012" y1="-300.79431844476" x2="361.55986493088" y2="-221.85604357685997" d=" M-299.1127,-300.7943  Q0,0 361.5599,-221.856"/></g></g></g></g></g></g></g><g transform="translate(1557,439.2)"><g transform="translate(10,10)"><g><g><g fill="#4f75d2"><path d="M3,0 L12,0 a3,3 0 0 1 3,3 L15,12 a3,3 0 0 1 -3,3 L3,15 a3,3 0 0 1 -3,-3 L0,3 a3,3 0 0 1 3,-3 Z"/></g><g fill="#000000" transform="translate(15,0)"><g style="user-select: none;"><text x="0" y="19.5" dy="-5.265"><tspan>Positive</tspan></text></g></g></g></g><g transform="translate(0,20)"><g><g fill="#df3c3c"><path d="M3,0 L12,0 a3,3 0 0 1 3,3 L15,12 a3,3 0 0 1 -3,3 L3,15 a3,3 0 0 1 -3,-3 L0,3 a3,3 0 0 1 3,-3 Z"/></g><g fill="#000000" transform="translate(15,0)"><g style="user-select: none;"><text x="0" y="19.5" dy="-5.265"><tspan>Negative</tspan></text></g></g></g></g></g></g></g></g></g></g></g><desc id="id-88863-description">Chart</desc></g><g><g><g role="tooltip" visibility="hidden" opacity="0"><g fill="#ffffff" fill-opacity="0.9" stroke-width="1" stroke-opacity="1" stroke="#ffffff" filter="url(#filter-id-88884)" style="pointer-events: none;" transform="translate(0,6)"><path d="M3,0 L3,0 L0,-6 L13,0 L21,0 a3,3 0 0 1 3,3 L24,8 a3,3 0 0 1 -3,3 L3,11 a3,3 0 0 1 -3,-3 L0,3 a3,3 0 0 1 3,-3"/></g><g><g fill="#ffffff" style="pointer-events: none;" transform="translate(12,6)"><g transform="translate(0,7)" display="none"/></g></g></g><g visibility="hidden" display="none" style="pointer-events: none;"><g fill="#ffffff" opacity="1"><rect width="2076" height="1098"/></g><g><g><g><g stroke-opacity="1" fill="#f3f3f3" fill-opacity="0.8"><g><g><path d=" M53,0  a53,53,0,0,1,-106,0 a53,53,0,0,1,106,0 M42,0  a42,42,0,0,0,-84,0 a42,42,0,0,0,84,0 L42,0 "/></g></g></g><g stroke-opacity="1" fill="#000000" fill-opacity="0.2"><g><g><path d=" M50,0  a50,50,0,0,1,-100,0 a50,50,0,0,1,100,0 M45,0  a45,45,0,0,0,-90,0 a45,45,0,0,0,90,0 L45,0 "/></g></g></g><g fill="#000000" fill-opacity="0.4"><g transform="translate(-19.5,-10)" style="user-select: none;"><text x="19.5px" y="19.5" dy="-5.265" text-anchor="middle"><tspan>100%</tspan></text></g></g></g></g></g></g><g opacity="0.3" aria-labelledby="id-88899-title" filter="url(#filter-id-88899)" style="cursor: pointer;" transform="translate(0,1077)"><g fill="#ffffff" opacity="0"><rect width="66" height="21"/></g><g><g shape-rendering="auto" fill="none" stroke-opacity="1" stroke-width="1.7999999999999998" stroke="#3cabff"><path d=" M15,15  C17.4001,15 22.7998,15.0001 27,15 C31.2002,14.9999 33.2999,6 36,6 C38.7001,6 38.6999,10.5 40.5,10.5 C42.3001,10.5 42.2999,6 45,6 C47.7001,6 50.9999,14.9999 54,15 C57.0002,15.0001 58.7999,15 60,15"/></g><g shape-rendering="auto" fill="none" stroke-opacity="1" stroke-width="1.7999999999999998" stroke="url(#gradient-id-88902)"><path d=" M6,15  C8.2501,15 9.7498,15.0001 15,15 C20.2502,14.9999 20.7748,3.6 27,3.6 C33.2252,3.6 33.8998,14.9999 39.9,15 C45.9002,15.0001 45.9748,15 51,15 C56.0252,15 57.7499,15 60,15"/></g></g><title id="id-88899-title">Chart created using amCharts library</title></g></g></g></g></g></svg>