<?xml version="1.0" encoding="utf-8"?><svg width="2076px" height="1098px" viewBox="0 0 2076 1098"  style="font-family: Roboto, sans-serif;font-size: 16px;" version="1.1" xmlns="http://www.w3.org/2000/svg" xmlns:xlink="http://www.w3.org/1999/xlink"><defs xmlns="http://www.w3.org/2000/svg"><clipPath id="id-88879"><rect width="2076" height="1098"/></clipPath><linearGradient id="gradient-id-88902" x1="1%" x2="99%" y1="59%" y2="41%"><stop stop-color="#474758" offset="0"/><stop stop-color="#474758" stop-opacity="1" offset="0.75"/><stop stop-color="#3cabff" stop-opacity="1" offset="0.755"/></linearGradient><filter id="filter-id-88884" filterUnits="objectBoundingBox" width="200%" height="200%" x="-50%" y="-50%"><feGaussianBlur result="blurOut" in="SourceGraphic" stdDeviation="1.5"/><feOffset result="offsetBlur" dx="1" dy="1"/><feFlood flood-color="#000000" flood-opacity="0.5"/><feComposite in2="offsetBlur" operator="in"/><feMerge><feMergeNode/><feMergeNode in="SourceGraphic"/></feMerge></filter><filter id="filter-id-88899" filterUnits="objectBoundingBox" width="120%" height="120%" x="-10%" y="-10%"><feColorMatrix type="saturate" values="0"/></filter></defs><g xmlns="http://www.w3.org/2000/svg"><g fill="#ffffff" fill-opacity="0"><rect width="2076" height="1098"/></g><g><g role="region" clip-path="url(#id-88879)" font-family="Open Sans" font-size="15" opacity="1" aria-describedby="id-88863-description"><g><g><g><g transform="translate(0,0)"><g><g transform="translate(1038,549)"><g><g><g><g fill="#77b1cc" style="touch-action: none; user-select: none; -webkit-user-drag: none; cursor: pointer;"><g><g stroke-opacity="1"><g><g><path d=" M1.8509,-424.196  L1.9164,-439.1958  a439.20000000000005,439.20000000000005,0,0,1,207.7545,53.2752 L202.51,-372.7403  a424.2,424.2,0,0,0,-200.6591,-51.4557 L1.8509,-424.196 "/></g><g/></g></g><g stroke-opacity="1"><g><g><path d=""/></g><g/></g></g><g fill="#000000" fill-opacity="0.4" transform="translate(100.651,-432.762) rotate(-75.61737141605715)"><g style="user-select: none;"><text x="0" y="19.5" overflow="hidden" dy="-5.265"><tspan>domain1</tspan></text></g></g></g></g><g fill="#777ecc" style="touch-action: none; user-select: none; -webkit-user-drag: none; cursor: pointer;"><g><g stroke-opacity="1"><g><g><path d=" M205.755,-370.9589  L213.0307,-384.0763  a439.20000000000005,439.20000000000005,0,0,1,211.2976,497.3997 L409.8361,109.4531  a424.2,424.2,0,0,0,-204.0811,-480.412 L205.755,-370.9589 "/></g><g/></g></g><g stroke-opacity="1"><g><g><path d=""/></g><g/></g></g><g fill="#000000" fill-opacity="0.4" transform="translate(404.92999999999995,-182.881) rotate(-23.015997171599054)"><g style="user-select: none;"><text x="0" y="19.5" overflow="hidden" dy="-5.265"><tspan>domain2</tspan></text></g></g></g></g><g fill="#a377cc" style="touch-action: none; user-select: none; -webkit-user-drag: none; cursor: pointer;"><g><g stroke-opacity="1"><g><g><path d=" M408.8654,113.0254  L423.3231,117.022  a439.20000000000005,439.20000000000005,0,0,1,-99.0152,179.1552 L313.2319,286.0619  a424.2,424.2,0,0,0,95.6335,-173.0365 L408.8654,113.0254 "/></g><g/></g></g><g stroke-opacity="1"><g><g><path d=""/></g><g/></g></g><g fill="#000000" fill-opacity="0.4" transform="translate(393.61199999999997,206.11499999999998) rotate(28.928463394215058)"><g style="user-select: none;"><text x="0" y="19.5" overflow="hidden" dy="-5.265"><tspan>domain3</tspan></text></g></g></g></g><g fill="#cc77c2" style="touch-action: none; user-select: none; -webkit-user-drag: none; cursor: pointer;"><g><g stroke-opacity="1"><g><g><path d=" M310.7236,288.7845  L321.711,298.9961  a439.20000000000005,439.20000000000005,0,0,1,-203.2605,123.9296 L114.4051,408.4815  a424.2,424.2,0,0,0,196.3185,-119.697 L310.7236,288.7845 "/></g><g/></g></g><g stroke-opacity="1"><g><g><path d=""/></g><g/></g></g><g fill="#000000" fill-opacity="0.4" transform="translate(239.77900000000002,374.058) rotate(58.628993683036555)"><g style="user-select: none;"><text x="0" y="19.5" overflow="hidden" dy="-5.265"><tspan>domain4</tspan></text></g></g></g></g><g fill="#cc778f" style="touch-action: none; user-select: none; -webkit-user-drag: none; cursor: pointer;"><g><g stroke-opacity="1"><g><g><path d=" M110.8362,409.4643  L114.7554,423.9432  a439.20000000000005,439.20000000000005,0,0,1,-342.6121,-48.4729 L-220.0747,362.6469  a424.2,424.2,0,0,0,330.9109,46.8174 L110.8362,409.4643 "/></g><g/></g></g><g stroke-opacity="1"><g><g><path d=""/></g><g/></g></g><g fill="#000000" fill-opacity="0.4" transform="translate(-79.551,490.896) rotate(278.0527838282449)"><g style="user-select: none;"><text x="0" y="19.5" overflow="hidden" dy="-5.265"><tspan>domain5</tspan></text></g></g></g></g><g fill="#cc9277" style="touch-action: none; user-select: none; -webkit-user-drag: none; cursor: pointer;"><g><g stroke-opacity="1"><g><g><path d=" M-223.231,360.7126  L-231.1246,373.4676  a439.20000000000005,439.20000000000005,0,0,1,-186.6713,-238.0306 L-403.527,130.8114  a424.2,424.2,0,0,0,180.2959,229.9011 L-223.231,360.7126 "/></g><g/></g></g><g stroke-opacity="1"><g><g><path d=""/></g><g/></g></g><g fill="#000000" fill-opacity="0.4" transform="translate(-397.40999999999997,298.953) rotate(321.89530290528563)"><g style="user-select: none;"><text x="0" y="19.5" overflow="hidden" dy="-5.265"><tspan>domain6</tspan></text></g></g></g></g><g fill="#ccc577" style="touch-action: none; user-select: none; -webkit-user-drag: none; cursor: pointer;"><g><g stroke-opacity="1"><g><g><path d=" M-404.6531,127.2851  L-418.9619,131.786  a439.20000000000005,439.20000000000005,0,0,1,65.9572,-393.0986 L-340.9485,-252.3881  a424.2,424.2,0,0,0,-63.7046,379.6731 L-404.6531,127.2851 "/></g><g/></g></g><g stroke-opacity="1"><g><g><path d=""/></g><g/></g></g><g fill="#000000" fill-opacity="0.4" transform="translate(-488.69100000000003,-92.136) rotate(9.524820890352203)"><g style="user-select: none;"><text x="0" y="19.5" overflow="hidden" dy="-5.265"><tspan>domain7</tspan></text></g></g></g></g><g fill="#a0cc77" style="touch-action: none; user-select: none; -webkit-user-drag: none; cursor: pointer;"><g><g stroke-opacity="1"><g><g><path d=" M-338.7331,-255.3538  L-350.7109,-264.3832  a439.20000000000005,439.20000000000005,0,0,1,348.7945,-174.8126 L-1.8509,-424.196  a424.2,424.2,0,0,0,-336.8822,168.8422 L-338.7331,-255.3538 "/></g><g/></g></g><g stroke-opacity="1"><g><g><path d=""/></g><g/></g></g><g fill="#000000" fill-opacity="0.4" transform="translate(-213.838,-448.978) rotate(63.38039728003193)"><g style="user-select: none;"><text x="0" y="19.5" overflow="hidden" dy="-5.265"><tspan>domain8</tspan></text></g></g></g></g></g></g><g><g><g stroke-opacity="0" fill-opacity="0.5" fill="#809cdf"><g><g><path d=" M-338.7331,-255.3538  a424.2,424.2,0,0,1,16.0699,-20.0262 Q0,0 -132.2899,403.0447 a424.2,424.2,0,0,1,-24.1427,-8.7422 Q0,0 -338.7331,-255.3538"/></g><g fill="none" stroke-opacity="0" stroke="#809cdf"><path x1="-330.84966498528" y1="-265.48849163508" x2="-144.42744106601998" y2="398.8563078045" d=" M-330.8497,-265.4885  Q0,0 -144.4274,398.8563"/></g></g></g><g stroke-opacity="0" fill-opacity="0.5" fill="#819cdf"><g><g><path d=" M-322.6631,-275.38  a424.2,424.2,0,0,1,17.1743,-18.9365 Q0,0 -156.4326,394.3025 a424.2,424.2,0,0,1,-23.468,-10.1392 Q0,0 -322.6631,-275.38"/></g><g fill="none" stroke-opacity="0" stroke="#819cdf"><path x1="-314.21865956124" y1="-284.97767279478" x2="-168.24299509668" y2="389.4097258905" d=" M-314.2187,-284.9777  Q0,0 -168.243,389.4097"/></g></g></g><g stroke-opacity="0" fill-opacity="0.5" fill="#ea7d7d"><g><g><path d=" M-305.4888,-294.3165  a424.2,424.2,0,0,1,16.244,-15.9786 Q0,0 412.9591,-97.0072 a424.2,424.2,0,0,1,4.6131,22.3138 Q0,0 -305.4888,-294.3165"/></g><g fill="none" stroke-opacity="0" stroke="#ea7d7d"><path x1="-297.47410890497997" y1="-302.41493768178" x2="415.41551054892" y2="-85.88127606197999" d=" M-297.4741,-302.4149  Q0,0 415.4155,-85.8813"/></g></g></g><g stroke-opacity="0" fill-opacity="0.5" fill="#e45d5d"><g><g><path d=" M-289.2448,-310.2952  a424.2,424.2,0,0,1,24.0541,-20.7932 Q0,0 165.8887,390.4185 a424.2,424.2,0,0,1,-29.7089,11.3286 Q0,0 -289.2448,-310.2952"/></g><g fill="none" stroke-opacity="0" stroke="#e45d5d"><path x1="-277.41263579232" y1="-320.91723154007997" x2="151.1403809958" y2="396.36123072504" d=" M-277.4126,-320.9172  Q0,0 151.1404,396.3612"/></g></g></g><g stroke-opacity="0" fill-opacity="0.5" fill="#87a1e0"><g><g><path d=" M-265.1907,-331.0884  a424.2,424.2,0,0,1,18.9051,-14.2941 Q0,0 -343.3804,249.0694 a424.2,424.2,0,0,1,-13.3745,-19.5665 Q0,0 -265.1907,-331.0884"/></g><g fill="none" stroke-opacity="0" stroke="#87a1e0"><path x1="-255.83798333393997" y1="-338.3675018052" x2="-350.20431361775996" y2="239.37957042467997" d=" M-255.838,-338.3675  Q0,0 -350.2043,239.3796"/></g></g></g><g stroke-opacity="0" fill-opacity="0.5" fill="#e35757"><g><g><path d=" M-246.2856,-345.3825  a424.2,424.2,0,0,1,27.8012,-18.2248 Q0,0 417.1484,77.025 a424.2,424.2,0,0,1,-7.3123,32.4281 Q0,0 -246.2856,-345.3825"/></g><g fill="none" stroke-opacity="0" stroke="#e35757"><path x1="-232.56354429546" y1="-354.76730100672" x2="413.81004492366" y2="93.31070001498" d=" M-232.5635,-354.7673  Q0,0 413.81,93.3107"/></g></g></g><g stroke-opacity="0" fill-opacity="0.5" fill="#8ba4e1"><g><g><path d=" M-404.6531,127.2851  a424.2,424.2,0,0,1,-6.102,-21.3329 Q0,0 -179.9006,384.1633 a424.2,424.2,0,0,1,-19.8413,-9.9323 Q0,0 -404.6531,127.2851"/></g><g fill="none" stroke-opacity="0" stroke="#8ba4e1"><path x1="-407.84362755234" y1="116.65854219725999" x2="-189.88615835784" y2="379.32688656618" d=" M-407.8436,116.6585  Q0,0 -189.8862,379.3269"/></g></g></g><g stroke-opacity="0" fill-opacity="0.5" fill="#ea8080"><g><g><path d=" M-410.7551,105.9522  a424.2,424.2,0,0,1,-4.9467,-21.4676 Q0,0 123.941,-405.6899 a424.2,424.2,0,0,1,20.8946,6.9816 Q0,0 -410.7551,105.9522"/></g><g fill="none" stroke-opacity="0" stroke="#ea8080"><path x1="-413.3678419605" y1="95.25054981666" x2="134.43363546774" y2="-402.33473333928" d=" M-413.3678,95.2505  Q0,0 134.4336,-402.3347"/></g></g></g><g stroke-opacity="0" fill-opacity="0.5" fill="#2c5ac9"><g><g><path d=" M-415.7018,84.4847  a424.2,424.2,0,0,1,-7.1829,-51.1056 Q0,0 417.5722,-74.6934 a424.2,424.2,0,0,1,5.9801,51.2603 Q0,0 -415.7018,84.4847"/></g><g fill="none" stroke-opacity="0" stroke="#2c5ac9"><path x1="-420.07115954958" y1="59.041179933959995" x2="421.34249233692" y2="-49.15428919464" d=" M-420.0712,59.0412  Q0,0 421.3425,-49.1543"/></g></g></g><g stroke-opacity="0" fill-opacity="0.5" fill="#e87474"><g><g><path d=" M-422.8847,33.379  a424.2,424.2,0,0,1,-1.2382,-25.2922 Q0,0 -136.8206,-401.5293 a424.2,424.2,0,0,1,24.2023,-7.4484 Q0,0 -422.8847,33.379"/></g><g fill="none" stroke-opacity="0" stroke="#e87474"><path x1="-423.69258010464" y1="20.7421691211" x2="-124.77504187218001" y2="-405.43412404194" d=" M-423.6926,20.7422  Q0,0 -124.775,-405.4341"/></g></g></g><g stroke-opacity="0" fill-opacity="0.5" fill="#ea8080"><g><g><path d=" M-424.1229,8.0868  a424.2,424.2,0,0,1,0.1458,-21.8374 Q0,0 420.5596,55.4551 a424.2,424.2,0,0,1,-3.4112,21.5699 Q0,0 -424.1229,8.0868"/></g><g fill="none" stroke-opacity="0" stroke="#ea8080"><path x1="-424.19054093387996" y1="-2.83283958468" x2="418.99282121844" y2="66.26202360162" d=" M-424.1905,-2.8328  Q0,0 418.9928,66.262"/></g></g></g><g stroke-opacity="0" fill-opacity="0.5" fill="#5a7ed5"><g><g><path d=" M-423.9771,-13.7506  a424.2,424.2,0,0,1,2.8678,-37.3628 Q0,0 -39.2795,-422.3775 a424.2,424.2,0,0,1,37.4286,-1.8185 Q0,0 -423.9771,-13.7506"/></g><g fill="none" stroke-opacity="0" stroke="#5a7ed5"><path x1="-422.95596270102" y1="-32.4637275753" x2="-20.58529962174" y2="-423.70023063648" d=" M-422.956,-32.4637  Q0,0 -20.5853,-423.7002"/></g></g></g><g stroke-opacity="0" fill-opacity="0.5" fill="#dc2929"><g><g><path d=" M-421.1093,-51.1135  a424.2,424.2,0,0,1,8.0285,-45.3744 Q0,0 -386.9576,173.8086 a424.2,424.2,0,0,1,-16.5693,-42.9971 Q0,0 -421.1093,-51.1135"/></g><g fill="none" stroke-opacity="0" stroke="#dc2929"><path x1="-417.7116049953" y1="-73.909776465" x2="-395.82655822794" y2="152.53516251582" d=" M-417.7116,-73.9098  Q0,0 -395.8266,152.5352"/></g></g></g><g stroke-opacity="0" fill-opacity="0.5" fill="#6b8bd9"><g><g><path d=" M-223.231,360.7126  a424.2,424.2,0,0,1,-26.8458,-18.0652 Q0,0 367.0244,212.694 a424.2,424.2,0,0,1,-17.2804,27.3576 Q0,0 -223.231,360.7126"/></g><g fill="none" stroke-opacity="0" stroke="#6b8bd9"><path x1="-236.82623146896" y1="351.9360397854" x2="358.64514613494" y2="226.53763295897997" d=" M-236.8262,351.936  Q0,0 358.6451,226.5376"/></g></g></g><g stroke-opacity="0" fill-opacity="0.5" fill="#6c8cd9"><g><g><path d=" M-250.0768,342.6474  a424.2,424.2,0,0,1,-25.0858,-19.7988 Q0,0 349.744,240.0516 a424.2,424.2,0,0,1,-19.0643,25.6485 Q0,0 -250.0768,342.6474"/></g><g fill="none" stroke-opacity="0" stroke="#6c8cd9"><path x1="-262.80622307058" y1="332.98427756328" x2="340.45350632328" y2="253.05542879904" d=" M-262.8062,332.9843  Q0,0 340.4535,253.0554"/></g></g></g><g stroke-opacity="0" fill-opacity="0.5" fill="#e66969"><g><g><path d=" M-275.1626,322.8485  a424.2,424.2,0,0,1,-20.9002,-19.0518 Q0,0 -163.2708,-391.5205 a424.2,424.2,0,0,1,26.4502,-10.0088 Q0,0 -275.1626,322.8485"/></g><g fill="none" stroke-opacity="0" stroke="#e66969"><path x1="-285.77150570052" y1="313.49686845666" x2="-150.1291089816" y2="-396.74537254338" d=" M-285.7715,313.4969  Q0,0 -150.1291,-396.7454"/></g></g></g><g stroke-opacity="0" fill-opacity="0.5" fill="#7c99de"><g><g><path d=" M-296.0628,303.7968  a424.2,424.2,0,0,1,-18.6027,-19.3125 Q0,0 330.6798,265.7001 a424.2,424.2,0,0,1,-17.4479,20.3618 Q0,0 -296.0628,303.7968"/></g><g fill="none" stroke-opacity="0" stroke="#7c99de"><path x1="-305.51675616588" y1="294.28753237632" x2="322.11675965406" y2="276.01889996772" d=" M-305.5168,294.2875  Q0,0 322.1168,276.0189"/></g></g></g><g stroke-opacity="0" fill-opacity="0.5" fill="#8ba4e1"><g><g><path d=" M110.8362,409.4643  a424.2,424.2,0,0,1,-21.7237,5.2701 Q0,0 -314.6655,284.4843 a424.2,424.2,0,0,1,-14.5492,-16.971 Q0,0 110.8362,409.4643"/></g><g fill="none" stroke-opacity="0" stroke="#8ba4e1"><path x1="100.00902829092" y1="412.24244597802" x2="-322.05185921748" y2="276.09462140694" d=" M100.009,412.2424  Q0,0 -322.0519,276.0946"/></g></g></g><g stroke-opacity="0" fill-opacity="0.5" fill="#e56363"><g><g><path d=" M89.1125,414.7344  a424.2,424.2,0,0,1,-29.4308,5.2463 Q0,0 405.1015,-125.8508 a424.2,424.2,0,0,1,7.8576,28.8436 Q0,0 89.1125,414.7344"/></g><g fill="none" stroke-opacity="0" stroke="#e56363"><path x1="74.44328046078" y1="417.61685551362" x2="409.28447833769997" y2="-111.49823221319998" d=" M74.4433,417.6169  Q0,0 409.2845,-111.4982"/></g></g></g><g stroke-opacity="0" fill-opacity="0.5" fill="#e97b7b"><g><g><path d=" M59.6816,419.9806  a424.2,424.2,0,0,1,-23.1058,2.6396 Q0,0 -329.2146,267.5133 a424.2,424.2,0,0,1,-14.1657,-18.4439 Q0,0 59.6816,419.9806"/></g><g fill="none" stroke-opacity="0" stroke="#e97b7b"><path x1="48.14683315638" y1="421.45880280167995" x2="-336.42392761236" y2="258.38843030616" d=" M48.1468,421.4588  Q0,0 -336.4239,258.3884"/></g></g></g><g stroke-opacity="0" fill-opacity="0.5" fill="#7b98dd"><g><g><path d=" M36.5758,422.6202  a424.2,424.2,0,0,1,-27.1819,1.4758 Q0,0 423.5523,-23.4331 a424.2,424.2,0,0,1,0.6309,27.2147 Q0,0 36.5758,422.6202"/></g><g fill="none" stroke-opacity="0" stroke="#7b98dd"><path x1="22.99671305022" y1="423.5761929021" x2="424.0860696366" y2="-9.83084670792" d=" M22.9967,423.5762  Q0,0 424.0861,-9.8308"/></g></g></g><g stroke-opacity="0" fill-opacity="0.5" fill="#7593dc"><g><g><path d=" M9.3939,424.096  a424.2,424.2,0,0,1,-29.1876,-0.358 Q0,0 423.3776,26.4017 a424.2,424.2,0,0,1,-2.818,29.0534 Q0,0 9.3939,424.096"/></g><g fill="none" stroke-opacity="0" stroke="#7593dc"><path x1="-5.20297131144" y1="424.1680906155" x2="422.218568163" y2="40.952664117960005" d=" M-5.203,424.1681  Q0,0 422.2186,40.9527"/></g></g></g><g stroke-opacity="0" fill-opacity="0.5" fill="#89a3e1"><g><g><path d=" M-19.7937,423.7379  a424.2,424.2,0,0,1,-22.7306,-1.6748 Q0,0 136.1797,401.7471 a424.2,424.2,0,0,1,-21.7746,6.7344 Q0,0 -19.7937,423.7379"/></g><g fill="none" stroke-opacity="0" stroke="#89a3e1"><path x1="-31.17023364672" y1="423.05325496476" x2="125.33767479114" y2="405.26054246244" d=" M-31.1702,423.0533  Q0,0 125.3377,405.2605"/></g></g></g><g stroke-opacity="0" fill-opacity="0.5" fill="#e45959"><g><g><path d=" M-42.5243,422.0632  a424.2,424.2,0,0,1,-32.4444,-4.5403 Q0,0 -356.7549,229.5029 a424.2,424.2,0,0,1,-16.6471,-28.2157 Q0,0 -42.5243,422.0632"/></g><g fill="none" stroke-opacity="0" stroke="#e45959"><path x1="-58.79031530778" y1="420.10634227338" x2="-365.35095793518" y2="215.55583391538" d=" M-58.7903,420.1063  Q0,0 -365.351,215.5558"/></g></g></g><g stroke-opacity="0" fill-opacity="0.5" fill="#88a1e0"><g><g><path d=" M-74.9687,417.5229  a424.2,424.2,0,0,1,-22.9101,-4.7694 Q0,0 -199.7418,374.231 a424.2,424.2,0,0,1,-20.3329,-11.5841 Q0,0 -74.9687,417.5229"/></g><g fill="none" stroke-opacity="0" stroke="#88a1e0"><path x1="-86.4565914156" y1="415.2961567461" x2="-209.98818605099999" y2="368.57916613056" d=" M-86.4566,415.2962  Q0,0 -209.9882,368.5792"/></g></g></g><g stroke-opacity="0" fill-opacity="0.5" fill="#6082d6"><g><g><path d=" M-97.8787,412.7534  a424.2,424.2,0,0,1,-34.4112,-9.7088 Q0,0 170.4014,-388.4701 a424.2,424.2,0,0,1,32.1086,15.7298 Q0,0 -97.8787,412.7534"/></g><g fill="none" stroke-opacity="0" stroke="#6082d6"><path x1="-115.18668044057999" y1="408.26176488594" x2="186.62148906954" y2="-380.94364388639997" d=" M-115.1867,408.2618  Q0,0 186.6215,-380.9436"/></g></g></g><g stroke-opacity="0" fill-opacity="0.5" fill="#de3838"><g><g><path d=" M310.7236,288.7845  a424.2,424.2,0,0,1,-30.0029,29.2431 Q0,0 381.2032,-186.0906 a424.2,424.2,0,0,1,16.4978,38.5117 Q0,0 310.7236,288.7845"/></g><g fill="none" stroke-opacity="0" stroke="#de3838"><path x1="296.0834409372" y1="303.77662188761997" x2="389.92788559662" y2="-167.03857052694" d=" M296.0834,303.7766  Q0,0 389.9279,-167.0386"/></g></g></g><g stroke-opacity="0" fill-opacity="0.5" fill="#7b98dd"><g><g><path d=" M280.7207,318.0275  a424.2,424.2,0,0,1,-20.9661,17.3427 Q0,0 -387.4,-172.8203 a424.2,424.2,0,0,1,11.8764,-24.4806 Q0,0 280.7207,318.0275"/></g><g fill="none" stroke-opacity="0" stroke="#7b98dd"><path x1="270.37676139558" y1="326.86701717474" x2="-381.65817137195995" y2="-185.15582686859997" d=" M270.3768,326.867  Q0,0 -381.6582,-185.1558"/></g></g></g><g stroke-opacity="0" fill-opacity="0.5" fill="#8aa3e1"><g><g><path d=" M259.7546,335.3702  a424.2,424.2,0,0,1,-18.2936,13.4023 Q0,0 -183.9606,-382.2357 a424.2,424.2,0,0,1,20.6899,-9.2848 Q0,0 259.7546,335.3702"/></g><g fill="none" stroke-opacity="0" stroke="#8aa3e1"><path x1="250.69736051430002" y1="342.19361977332" x2="-173.67775378464" y2="-387.01637930969997" d=" M250.6974,342.1936  Q0,0 -173.6778,-387.0164"/></g></g></g><g stroke-opacity="0" fill-opacity="0.5" fill="#6485d7"><g><g><path d=" M241.461,348.7725  a424.2,424.2,0,0,1,-29.0564,18.4195 Q0,0 -360.2792,-223.9298 a424.2,424.2,0,0,1,19.3307,-28.4583 Q0,0 241.461,348.7725"/></g><g fill="none" stroke-opacity="0" stroke="#6485d7"><path x1="227.11957826165997" y1="358.2769001511" x2="-350.90248721766" y2="-238.35495477528" d=" M227.1196,358.2769  Q0,0 -350.9025,-238.355"/></g></g></g><g stroke-opacity="0" fill-opacity="0.5" fill="#8aa3e1"><g><g><path d=" M212.4046,367.192  a424.2,424.2,0,0,1,-19.888,10.8068 Q0,0 424.1831,3.7815 a424.2,424.2,0,0,1,-0.8055,22.6202 Q0,0 212.4046,367.192"/></g><g fill="none" stroke-opacity="0" stroke="#8aa3e1"><path x1="202.5326502549" y1="372.72800481126" x2="423.93126879095996" y2="15.096997603799998" d=" M202.5327,372.728  Q0,0 423.9313,15.097"/></g></g></g><g stroke-opacity="0" fill-opacity="0.5" fill="#7996dd"><g><g><path d=" M408.8654,113.0254  a424.2,424.2,0,0,1,-8.2761,26.5234 Q0,0 97.1172,-412.9333 a424.2,424.2,0,0,1,26.8238,7.2434 Q0,0 408.8654,113.0254"/></g><g fill="none" stroke-opacity="0" stroke="#7996dd"><path x1="404.94455817312" y1="126.35483690718" x2="110.58844164984" y2="-409.53124005906" d=" M404.9446,126.3548  Q0,0 110.5884,-409.5312"/></g></g></g><g stroke-opacity="0" fill-opacity="0.5" fill="#708fda"><g><g><path d=" M400.5893,139.5488  a424.2,424.2,0,0,1,-11.1182,28.552 Q0,0 -373.402,201.2872 a424.2,424.2,0,0,1,-13.5556,-27.4787 Q0,0 400.5893,139.5488"/></g><g fill="none" stroke-opacity="0" stroke="#708fda"><path x1="395.28809974584" y1="153.92517081018" x2="-380.42802619878" y2="187.67034096174" d=" M395.2881,153.9252  Q0,0 -380.428,187.6703"/></g></g></g><g stroke-opacity="0" fill-opacity="0.5" fill="#e76c6c"><g><g><path d=" M389.4711,168.1008  a424.2,424.2,0,0,1,-11.7283,24.9174 Q0,0 144.8356,-398.7083 a424.2,424.2,0,0,1,25.5658,10.2382 Q0,0 389.4711,168.1008"/></g><g fill="none" stroke-opacity="0" stroke="#e76c6c"><path x1="383.8092463884" y1="180.65464949196" x2="157.70158382201998" y2="-393.79671210557996" d=" M383.8092,180.6546  Q0,0 157.7016,-393.7967"/></g></g></g><g stroke-opacity="0" fill-opacity="0.5" fill="#7a97dd"><g><g><path d=" M205.755,-370.9589  a424.2,424.2,0,0,1,23.6083,14.1143 Q0,0 -413.0808,-96.4879 a424.2,424.2,0,0,1,7.1215,-26.5679 Q0,0 205.755,-370.9589"/></g><g fill="none" stroke-opacity="0" stroke="#7a97dd"><path x1="217.67363277492" y1="-364.09316060628004" x2="-409.73541087024" y2="-109.82956384218001" d=" M217.6736,-364.0932  Q0,0 -409.7354,-109.8296"/></g></g></g><g stroke-opacity="0" fill-opacity="0.5" fill="#8ba4e1"><g><g><path d=" M229.3634,-356.8446  a424.2,424.2,0,0,1,18.5217,12.6083 Q0,0 377.7428,193.0181 a424.2,424.2,0,0,1,-10.7184,19.6759 Q0,0 229.3634,-356.8446"/></g><g fill="none" stroke-opacity="0" stroke="#8ba4e1"><path x1="238.70750769222" y1="-350.66275219962" x2="372.51353043660004" y2="202.92685787262002" d=" M238.7075,-350.6628  Q0,0 372.5135,202.9269"/></g></g></g><g stroke-opacity="0" fill-opacity="0.5" fill="#ea7c7c"><g><g><path d=" M247.8851,-344.2363  a424.2,424.2,0,0,1,18.2572,13.9123 Q0,0 397.701,-147.5789 a424.2,424.2,0,0,1,7.4005,21.7281 Q0,0 247.8851,-344.2363"/></g><g fill="none" stroke-opacity="0" stroke="#ea7c7c"><path x1="257.1078276459" y1="-337.40362323906" x2="401.54825139533995" y2="-136.76491437713997" d=" M257.1078,-337.4036  Q0,0 401.5483,-136.7649"/></g></g></g><g stroke-opacity="0" fill-opacity="0.5" fill="#e76a6a"><g><g><path d=" M266.1423,-330.324  a424.2,424.2,0,0,1,21.2583,18.3199 Q0,0 -405.9593,-123.0558 a424.2,424.2,0,0,1,9.0247,-26.5723 Q0,0 266.1423,-330.324"/></g><g fill="none" stroke-opacity="0" stroke="#e76a6a"><path x1="276.9229719333" y1="-321.339863103" x2="-401.66673117647997" y2="-136.41655709514" d=" M276.923,-321.3399  Q0,0 -401.6667,-136.4166"/></g></g></g><g stroke-opacity="0" fill-opacity="0.5" fill="#829ddf"><g><g><path d=" M287.4006,-312.0041  a424.2,424.2,0,0,1,17.9332,17.5267 Q0,0 -396.9346,-149.6281 a424.2,424.2,0,0,1,9.5346,-23.1922 Q0,0 287.4006,-312.0041"/></g><g fill="none" stroke-opacity="0" stroke="#829ddf"><path x1="296.49672092628003" y1="-303.37325931276" x2="-392.33873085161997" y2="-161.29463803824" d=" M296.4967,-303.3733  Q0,0 -392.3387,-161.2946"/></g></g></g><g stroke-opacity="0" fill-opacity="0.5" fill="#708fda"><g><g><path d=" M305.3338,-294.4774  a424.2,424.2,0,0,1,20.4878,22.8417 Q0,0 -375.5236,-197.3009 a424.2,424.2,0,0,1,15.2444,-26.6289 Q0,0 305.3338,-294.4774"/></g><g fill="none" stroke-opacity="0" stroke="#708fda"><path x1="315.78427494768" y1="-283.24182548172" x2="-368.14227041844" y2="-210.75319384559998" d=" M315.7843,-283.2418  Q0,0 -368.1423,-210.7532"/></g></g></g><g stroke-opacity="0" fill-opacity="0.5" fill="#dd2f2f"><g><g><path d=" M325.8216,-271.6357  a424.2,424.2,0,0,1,26.7086,35.6947 Q0,0 -112.6183,-408.9777 a424.2,424.2,0,0,1,43.5437,-9.5606 Q0,0 325.8216,-271.6357"/></g><g fill="none" stroke-opacity="0" stroke="#dd2f2f"><path x1="339.64508008914" y1="-254.13944903466" x2="-90.97214917224" y2="-414.33043346142" d=" M339.6451,-254.1394  Q0,0 -90.9721,-414.3304"/></g></g></g><g stroke-opacity="0" fill-opacity="0.5" fill="#e56363"><g><g><path d=" M352.5301,-235.941  a424.2,424.2,0,0,1,15.8146,25.5419 Q0,0 -69.0746,-418.5383 a424.2,424.2,0,0,1,29.7951,-3.8392 Q0,0 352.5301,-235.941"/></g><g fill="none" stroke-opacity="0" stroke="#e56363"><path x1="360.6636058809" y1="-223.31010585912" x2="-54.21105908526" y2="-420.72176204646" d=" M360.6636,-223.3101  Q0,0 -54.2111,-420.7218"/></g></g></g><g stroke-opacity="0" fill-opacity="0.5" fill="#e76c6c"><g><g><path d=" M1.8509,-424.196  a424.2,424.2,0,0,1,27.4813,1.0113 Q0,0 368.3447,-210.3991 a424.2,424.2,0,0,1,12.8585,24.3085 Q0,0 1.8509,-424.196"/></g><g fill="none" stroke-opacity="0" stroke="#e76c6c"><path x1="15.59976330402" y1="-423.9130658175" x2="374.97102483834" y2="-198.34911273534001" d=" M15.5998,-423.9131  Q0,0 374.971,-198.3491"/></g></g></g><g stroke-opacity="0" fill-opacity="0.5" fill="#e66565"><g><g><path d=" M29.3322,-423.1847  a424.2,424.2,0,0,1,29.2236,3.0456 Q0,0 192.5165,377.9987 a424.2,424.2,0,0,1,-26.6279,12.4198 Q0,0 29.3322,-423.1847"/></g><g fill="none" stroke-opacity="0" stroke="#e66565"><path x1="43.97039080602" y1="-421.91497335582" x2="179.31016477206" y2="384.4392082041" d=" M43.9704,-421.915  Q0,0 179.3102,384.4392"/></g></g></g><g stroke-opacity="0" fill-opacity="0.5" fill="#e04242"><g><g><path d=" M58.5558,-420.1391  a424.2,424.2,0,0,1,38.5614,7.2058 Q0,0 -218.4843,-363.6072 a424.2,424.2,0,0,1,34.5237,-18.6284 Q0,0 58.5558,-420.1391"/></g><g fill="none" stroke-opacity="0" stroke="#e04242"><path x1="77.91985716228" y1="-416.98217689086" x2="-201.43793975508" y2="-373.3207688259" d=" M77.9199,-416.9822  Q0,0 -201.4379,-373.3208"/></g></g></g></g></g></g></g><g transform="translate(1557,439.2)"><g transform="translate(10,10)"><g><g><g fill="#4f75d2"><path d="M3,0 L12,0 a3,3 0 0 1 3,3 L15,12 a3,3 0 0 1 -3,3 L3,15 a3,3 0 0 1 -3,-3 L0,3 a3,3 0 0 1 3,-3 Z"/></g><g fill="#000000" transform="translate(15,0)"><g style="user-select: none;"><text x="0" y="19.5" dy="-5.265"><tspan>Positive</tspan></text></g></g></g></g><g transform="translate(0,20)"><g><g fill="#df3c3c"><path d="M3,0 L12,0 a3,3 0 0 1 3,3 L15,12 a3,3 0 0 1 -3,3 L3,15 a3,3 0 0 1 -3,-3 L0,3 a3,3 0 0 1 3,-3 Z"/></g><g fill="#000000" transform="translate(15,0)"><g style="user-select: none;"><text x="0" y="19.5" dy="-5.265"><tspan>Negative</tspan></text></g></g></g></g></g></g></g></g></g></g></g><desc id="id-88863-description">Chart</desc></g><g><g><g role="tooltip" opacity="0" aria-describedby="id-89285" transform="translate(1242.33,549.9516)" aria-hidden="true" visibility="hidden"><g fill="#ea8080" fill-opacity="0.9" stroke-width="1" stroke-opacity="1" stroke="#ffffff" filter="url(#filter-id-88884)" style="pointer-events: none;" transform="translate(-73,-37)"><path d="M3,0 L143,0 a3,3 0 0 1 3,3 L146,28 a3,3 0 0 1 -3,3 L143,31 L78,31 L73,37 L68,31 L3,31 a3,3 0 0 1 -3,-3 L0,3 a3,3 0 0 1 3,-3"/></g><g><g fill="#000000" style="pointer-events: none;" transform="translate(0,-37)"><g transform="translate(-61,7)" style="user-select: none;"><text x="0" y="19.515625" dy="-5.269"><tspan>varH ↔ varS: -0.4</tspan></text></g></g></g></g><g visibility="hidden" style="pointer-events: none;" display="none"><g fill="#ffffff" opacity="1"><rect width="2076" height="1098"/></g><g><g transform="translate(1038,549)"><g><g stroke-opacity="1" fill="#f3f3f3" fill-opacity="0.8"><g><g><path d=" M53,0  a53,53,0,0,1,-106,0 a53,53,0,0,1,106,0 M42,0  a42,42,0,0,0,-84,0 a42,42,0,0,0,84,0 L42,0 "/></g></g></g><g stroke-opacity="1" fill="#000000" fill-opacity="0.2"><g><g><path d=" M50,0  a50,50,0,0,1,-100,0 a50,50,0,0,1,100,0 M45,0  a45,45,0,0,0,-90,0 a45,45,0,0,0,90,0 L45,0 "/></g></g></g><g fill="#000000" fill-opacity="0.4"><g transform="translate(-19.5,-10)" style="user-select: none;"><text x="19.5px" y="19.5" dy="-5.265" text-anchor="middle"><tspan>100%</tspan></text></g></g></g></g></g></g><g opacity="0.3" aria-labelledby="id-88899-title" filter="url(#filter-id-88899)" style="cursor: pointer;" transform="translate(0,1077)"><g fill="#ffffff" opacity="0"><rect width="66" height="21"/></g><g><g shape-rendering="auto" fill="none" stroke-opacity="1" stroke-width="1.7999999999999998" stroke="#3cabff"><path d=" M15,15  C17.4001,15 22.7998,15.0001 27,15 C31.2002,14.9999 33.2999,6 36,6 C38.7001,6 38.6999,10.5 40.5,10.5 C42.3001,10.5 42.2999,6 45,6 C47.7001,6 50.9999,14.9999 54,15 C57.0002,15.0001 58.7999,15 60,15"/></g><g shape-rendering="auto" fill="none" stroke-opacity="1" stroke-width="1.7999999999999998" stroke="url(#gradient-id-88902)"><path d=" M6,15  C8.2501,15 9.7498,15.0001 15,15 C20.2502,14.9999 20.7748,3.6 27,3.6 C33.2252,3.6 33.8998,14.9999 39.9,15 C45.9002,15.0001 45.9748,15 51,15 C56.0252,15 57.7499,15 60,15"/></g></g><title id="id-88899-title">Chart created using amCharts library</title></g></g></g></g></g></svg>